<svg width="39" height="39" fill="none" xmlns="http://www.w3.org/2000/svg"><path d="M19.21.406C8.986.562.628 8.868.406 19.098c-.078 3.44.78 6.838 2.482 9.83a.735.735 0 0 0 1.304-.056 21.911 21.911 0 0 0 2.087-9.363 13.178 13.178 0 0 1 4.96-10.322 1.467 1.467 0 0 1 2.062.253 1.467 1.467 0 0 1-.252 2.062 10.246 10.246 0 0 0-3.83 8.01 24.837 24.837 0 0 1-3.388 12.55.734.734 0 0 0 .112.89c.368.367.751.734 1.148 1.068a.735.735 0 0 0 1.101-.184 27.755 27.755 0 0 0 3.413-8.739 1.468 1.468 0 1 1 2.88.586 30.721 30.721 0 0 1-3.87 9.848.736.736 0 0 0 .295 1.034c.453.23.918.442 1.39.637a.734.734 0 0 0 .917-.296 33.597 33.597 0 0 0 4.814-17.355 1.498 1.498 0 0 1 1.366-1.507 1.469 1.469 0 0 1 1.572 1.469A36.523 36.523 0 0 1 16.34 37.35a.736.736 0 0 0 .542 1.087c.557.078 1.12.13 1.69.158a.732.732 0 0 0 .675-.385 39.45 39.45 0 0 0 4.66-18.563c.009-2.433-1.892-4.497-4.323-4.542a4.405 4.405 0 0 0-4.49 4.395 1.487 1.487 0 0 1-1.339 1.468 1.47 1.47 0 0 1-1.599-1.468 7.344 7.344 0 0 1 7.421-7.344c4.04.042 7.285 3.52 7.265 7.557a42.48 42.48 0 0 1-3.767 17.362.734.734 0 0 0 .848 1.012 19.033 19.033 0 0 0 1.884-.551.737.737 0 0 0 .43-.408 44.76 44.76 0 0 0 2.109-6.242 1.469 1.469 0 0 1 2.845.735 45.105 45.105 0 0 1-.44 1.597.734.734 0 0 0 1.186.765A19.094 19.094 0 0 0 19.21.406Zm13.142 25.167a1.468 1.468 0 0 1-2.914-.365c.234-1.888.352-3.79.353-5.692A10.296 10.296 0 0 0 18.224 9.314a1.47 1.47 0 1 1-.367-2.917 13.235 13.235 0 0 1 14.871 13.125c0 2.023-.126 4.044-.377 6.051Z" fill="#BDBDBD"/></svg>