<svg width="83" height="62" fill="none" xmlns="http://www.w3.org/2000/svg"><path fill-rule="evenodd" clip-rule="evenodd" d="M18.339 8.795c.136-1.034.246-2.155.388-3.175.05-.356.085-.699.129-1.054l.097-.79c.018-.128.001-.234.062-.234h1.869l.145 1.186c.049.399.089.785.145 1.186.055.4.09.784.146 1.185.055.4.095.787.144 1.187l.438 3.555c.023.18.031.145-.158.145h-.995l-.178-1.852c-.01-.072-.024-.172-.024-.26h-1.223c-.014.167-.044.357-.053.525-.017.298-.07.74-.096 1.06-.014.168-.039.36-.053.527h-1.17l.062-.544c.119-.857.21-1.782.325-2.647Zm1.246-1.523c-.025.18-.027.347-.05.528l-.103 1.066h1.008l-.306-3.5a2.878 2.878 0 0 1-.017-.265c-.002-.172-.04-.361-.04-.537h-.256c-.055 0-.041.05-.04.107l-.028.416c-.04.517-.096 1.135-.12 1.641l-.048.544Zm8.33.478c0 .701.018 1.398.027 2.098 0 .086.014.15.014.255 0 .198.004.568.076.717.137.286.447.305.757.305h6.024c.17 0 .34-.01.468-.056a.462.462 0 0 0 .233-.17c.137-.188.115-.55.118-.783.001-.084.015-.14.014-.242-.001-.659.027-1.38.027-2.043 0-.187-.013-.324-.013-.511l-.014-1.546c0-.176-.013-.324-.013-.511 0-.513-.058-.86-.686-.86h-6.319c-.337 0-.559.129-.63.392a2.911 2.911 0 0 0-.042.468c0 .179-.014.317-.014.484.001.651-.027 1.345-.027 2.003Zm30.213-.737-.177 1.853h1.008l-.053-.538c-.025-.464-.112-1.002-.135-1.479-.002-.059-.011-.056-.013-.12a2.581 2.581 0 0 0-.02-.277l-.122-1.625a2.45 2.45 0 0 1-.02-.263h-.282c-.012.05-.026.21-.027.268l-.054.82c-.033.424-.061.945-.105 1.36Zm4.099-2.45v3.375h.363c.66 0 .848-.205.847-.82 0-.109.014-.175.014-.268V5.639c0-.091-.015-.15-.014-.255.002-.895-.452-.82-1.21-.82ZM22.47 8.867h1.049c.062 0 .026.08.027.161 0 .066.004.15-.001.215-.03.37-.004.786 0 1.157.006.469.21.732.698.72.57-.014.609-.313.659-.763.008-.078-.005-.159.005-.236.026-.185-.004-.416-.003-.595l-.016-.361c-.02-.195-.077-.459-.17-.583-.318-.425-1.518-.218-2.009-1.003-.364-.582-.293-1.5-.293-2.221 0-.583.107-1.11.38-1.422a.947.947 0 0 1 .243-.214c.267-.158.634-.24 1.006-.26h.345c.264.014.516.058.72.13.22.075.392.2.524.363.5.616.359 1.8.359 2.64H24.89c0-.289.014-.531.014-.82 0-.338.04-.931-.127-1.151-.19-.251-.656-.27-.918-.15a.425.425 0 0 0-.206.211.955.955 0 0 0-.09.327c-.009.067-.006.145-.013.202-.01.064-.004.132-.004.198 0 .462-.036 1.049.128 1.444.222.533 1.183.283 1.83.832.442.373.543 1.1.543 1.73 0 1.004.072 2.123-.872 2.503-.211.085-.48.133-.76.146h-.334a2.761 2.761 0 0 1-.722-.123c-.404-.135-.624-.398-.77-.79-.182-.49-.153-1.308-.146-1.87 0-.088.027-.26.027-.417Zm4.38 1.844a9.122 9.122 0 0 1-.037-1.091c0-.126-.014-.224-.014-.363 0-.493-.01-1.024-.01-1.493 0-.468.01-1 .01-1.492 0-.247.014-.478.014-.74 0-.616.032-1.335.522-1.736.29-.237.78-.334 1.172-.334h6.561c.56 0 1.175.148 1.457.655.082.148.144.33.182.516.03.14.05.326.055.483.001.07.014.083.014.16v.351c-.001.115.013.206.013.336 0 .472.014.907.014 1.385l-.014 2.245c0 .132-.014.21-.014.336a4.71 4.71 0 0 1-.07.978c-.065.356-.23.673-.521.878-.252.177-.683.282-1.116.282h-6.561c-.963 0-1.54-.399-1.656-1.356Zm10.816.223c-.093-.397-.098-1.135-.084-1.584l.026-.35c.004-.063-.02-.133.041-.133h1.049c0 .102-.014.147-.014.242l-.013.484c0 .274-.003.93.069 1.141.043.129.094.211.202.282.19.124.589.132.787.038.342-.16.327-.696.327-1.112 0-.411.017-1.067-.211-1.375-.115-.155-.31-.197-.518-.249-.21-.052-.403-.1-.608-.158-.291-.082-.653-.263-.825-.519-.404-.599-.339-1.473-.339-2.216 0-.41.042-.919.233-1.26.044-.078.059-.121.128-.208.135-.169.316-.29.545-.369.215-.074.506-.126.788-.126.554 0 1.126.036 1.51.467.454.512.386 1.458.386 2.168 0 .183-.014.316-.014.498H40.03c0-.375.054-1.522-.025-1.79a.51.51 0 0 0-.174-.27l-.166-.09c-.248-.09-.735-.073-.886.267-.114.259-.094.872-.094 1.224 0 .081.014.098.014.174.004.293.016.551.148.808.252.491 1.62.199 2.088 1.138.165.33.251.779.251 1.268 0 .522.021 1.069-.077 1.563-.054.274-.132.44-.275.653-.256.383-.865.527-1.342.527-.933 0-1.596-.16-1.825-1.133Zm4.592.571c-.185-.277-.284-.672-.293-.997l-.027-3.564.013-1.654c.001-.075.014-.086.015-.16.004-.406.112-.829.36-1.132.017-.021.027-.029.044-.05.136-.169.339-.28.542-.36.422-.162 1.258-.164 1.648-.018.126.047.348.135.447.225.087.079.143.12.215.229.1.15.16.274.214.458.148.509.105 1.21.105 1.777 0 .13-.013.207-.013.336h-1.143l.014-1.385c0-.303-.018-.568-.258-.71a.683.683 0 0 0-.243-.08c-.4-.052-.707.058-.783.474l-.021.302c-.003.105 0 .217 0 .323 0 .123-.014.199-.013.31l-.014.954c0 .66-.02 1.606.014 2.245v.7c0 .086.014.12.014.214-.004.632-.067 1.184.672 1.184.49 0 .672-.25.672-.74V8.88h1.143c0 .458.03 1.326-.025 1.764-.038.305-.113.581-.247.788a1.1 1.1 0 0 1-.242.282c-.056.046-.088.065-.15.106-.229.147-.624.231-1.035.247h-.28c-.401-.015-.787-.096-1.014-.247a1.017 1.017 0 0 1-.331-.315Zm4.157.44V3.583c0-.03.01-.04.04-.04h1.103v3.657h1.224V3.542h1.143v8.443h-1.143V8.22h-1.224v3.765h-1.102c-.031 0-.04-.01-.04-.04Zm4.491.041V3.542h1.103c.03 0 .04.01.04.04v8.363c0 .03-.01.04-.04.04h-1.103Zm2.11 0V3.542h1.144v7.421h1.882v1.022h-3.025Zm4.232-6.363.242-1.977c.006-.055-.011-.103.044-.103h1.87c.001.08.027.218.037.298l.109.886c.02.204.045.396.073.6.078.588.136 1.193.216 1.773.056.4.096.786.145 1.186.047.39.101.79.145 1.186.023.199.045.393.073.6.08.592.138 1.18.219 1.77.025.179.032.145-.157.144h-.995c-.014-.164-.047-.357-.054-.524-.007-.168-.035-.365-.052-.527l-.096-1.06h-1.223l-.079.796c-.01.092-.008.17-.021.26l-.049.53c-.009.169-.04.358-.053.525h-1.17l.256-2.124c.039-.352.084-.722.13-1.066.048-.357.082-.697.13-1.054.09-.695.168-1.425.26-2.12Zm3.836 6.323V3.582c0-.03.01-.04.04-.04h1.412c.376 0 .726.021 1.027.102.856.233 1.02 1.031 1.016 1.807 0 .11.015.164.014.269v.282c0 .797.075 1.852-.369 2.415-.09.114-.285.295-.424.328.005.063.037.153.055.213l.057.199c.07.245.796 2.753.802 2.828h-1.21l-.7-2.689-.047-.194c-.023-.09-.026-.156-.073-.156h-.457v3.04h-1.103c-.03 0-.04-.01-.04-.041Zm7.52-10.99H14.063c-.908 0-1.65.742-1.65 1.65v10.317c0 .907.742 1.65 1.65 1.65h54.54c.908 0 1.65-.742 1.65-1.65V2.605c0-.907-.742-1.65-1.65-1.65Z" fill="#fff"/><path d="M14.88 48.658h3.582c.918 0 1.377.46 1.377 1.378v4.188c0 4.776-2.388 7.165-7.164 7.165H7.164C2.388 61.389 0 59 0 54.224v-29.76C0 19.688 2.388 17.3 7.164 17.3h5.511c4.776 0 7.164 2.388 7.164 7.164v4.189c0 .918-.459 1.377-1.377 1.377H14.88c-.919 0-1.378-.459-1.378-1.378v-1.267c0-1.58-.202-2.6-.607-3.059-.404-.459-1.396-.689-2.976-.689-1.359 0-2.296.212-2.81.634-.515.423-.772 1.46-.772 3.114v23.918c0 1.653.257 2.692.772 3.114.514.422 1.451.634 2.81.634.698 0 1.204-.019 1.516-.055.312-.037.661-.166 1.047-.386.386-.22.652-.597.8-1.13.146-.533.22-1.258.22-2.177v-1.267c0-.919.459-1.378 1.377-1.378Zm7.164 10.802V18.677c0-.918.46-1.377 1.378-1.377h3.582c.919 0 1.378.459 1.378 1.377v34.72c0 .625.12 1.057.358 1.296.24.238.67.358 1.295.358h6.118c.918 0 1.378.459 1.378 1.377v3.583c0 .918-.46 1.377-1.378 1.377h-12.18c-.735 0-1.24-.137-1.515-.413-.276-.275-.414-.78-.414-1.515Zm30.698-8.708V18.677c0-.918.459-1.377 1.377-1.377h3.583c.918 0 1.377.459 1.377 1.377v35.547c0 4.776-2.388 7.165-7.164 7.165h-5.566c-4.777 0-7.165-2.389-7.165-7.165V18.677c0-.918.46-1.377 1.378-1.377h3.582c.919 0 1.378.459 1.378 1.377v32.075c0 1.69.257 2.83.772 3.417.514.588 1.396.882 2.645.882h.33c1.323 0 2.233-.285 2.729-.855.495-.569.744-1.717.744-3.444Zm9.645 8.708V19.228c0-.734.137-1.24.413-1.515.276-.276.78-.413 1.516-.413h10.25c4.776 0 7.165 2.388 7.165 7.164v9.7c0 .881-.313 1.947-.937 3.196-.184.33-.147.643.11.937 1.176 1.25 1.764 2.719 1.764 4.409v11.518c0 4.776-2.389 7.165-7.165 7.165H64.315c-1.285 0-1.928-.643-1.928-1.93Zm10.526-17.856h-2.535c-.625 0-1.057.119-1.296.358-.238.239-.358.67-.358 1.295v10.14c0 .625.12 1.057.358 1.296.24.238.671.358 1.296.358h1.929c1.47 0 2.507-.22 3.113-.662.607-.44.91-1.47.91-3.086v-5.952c0-1.506-.267-2.498-.8-2.976-.532-.477-1.405-.735-2.617-.771ZM71.37 23.637h-.992c-.625 0-1.057.12-1.296.359-.238.238-.358.67-.358 1.295v8.321c0 .588.12 1.01.358 1.268.24.257.671.386 1.296.386h.992c1.47 0 2.507-.22 3.113-.661.607-.441.91-1.47.91-3.087v-4.133c0-1.617-.303-2.646-.91-3.086-.606-.441-1.644-.662-3.113-.662Z" fill="#fff"/></svg>